<mxfile host="app.diagrams.net" modified="2022-07-13T10:15:30.289Z" agent="5.0 (Windows NT 10.0; Win64; x64) AppleWebKit/537.36 (KHTML, like Gecko) Chrome/102.0.5005.63 Safari/537.36 Edg/102.0.1245.39" etag="KdOZH4MAG4-g1SIn6TTS" version="20.0.4" type="github">
  <diagram id="wFE0QG_FPsp0jaGvCLVb" name="Page-1">
    <mxGraphModel dx="2272" dy="762" grid="1" gridSize="10" guides="1" tooltips="1" connect="1" arrows="1" fold="1" page="1" pageScale="1" pageWidth="850" pageHeight="1100" math="0" shadow="0">
      <root>
        <mxCell id="0" />
        <mxCell id="1" parent="0" />
        <mxCell id="wx3tCpPTfAVVABFYTkkV-45" value="" style="rounded=1;whiteSpace=wrap;html=1;absoluteArcSize=1;arcSize=14;strokeWidth=2;" vertex="1" parent="1">
          <mxGeometry x="-70" y="207.5" width="170" height="262.5" as="geometry" />
        </mxCell>
        <mxCell id="wx3tCpPTfAVVABFYTkkV-1" value="" style="sketch=0;aspect=fixed;html=1;points=[];align=center;image;fontSize=12;image=img/lib/mscae/Kubernetes.svg;" vertex="1" parent="1">
          <mxGeometry x="20" y="224" width="50" height="48" as="geometry" />
        </mxCell>
        <mxCell id="wx3tCpPTfAVVABFYTkkV-2" value="" style="aspect=fixed;html=1;points=[];align=center;image;fontSize=12;image=img/lib/azure2/devops/Azure_DevOps.svg;" vertex="1" parent="1">
          <mxGeometry x="-63" y="365" width="44" height="44" as="geometry" />
        </mxCell>
        <mxCell id="wx3tCpPTfAVVABFYTkkV-3" value="" style="sketch=0;aspect=fixed;html=1;points=[];align=center;image;fontSize=12;image=img/lib/mscae/Azure_Repos.svg;" vertex="1" parent="1">
          <mxGeometry x="24.75" y="320" width="40.5" height="45" as="geometry" />
        </mxCell>
        <mxCell id="wx3tCpPTfAVVABFYTkkV-4" value="" style="sketch=0;aspect=fixed;html=1;points=[];align=center;image;fontSize=12;image=img/lib/mscae/Azure_Artifacts.svg;" vertex="1" parent="1">
          <mxGeometry x="24.75" y="410" width="40" height="40" as="geometry" />
        </mxCell>
        <mxCell id="wx3tCpPTfAVVABFYTkkV-40" value="" style="strokeWidth=2;html=1;shape=mxgraph.flowchart.annotation_2;align=left;labelPosition=right;pointerEvents=1;" vertex="1" parent="1">
          <mxGeometry x="-30" y="338.5" width="50" height="97" as="geometry" />
        </mxCell>
        <mxCell id="wx3tCpPTfAVVABFYTkkV-41" value="" style="line;strokeWidth=1;rotatable=0;dashed=0;labelPosition=right;align=left;verticalAlign=middle;spacingTop=0;spacingLeft=6;points=[];portConstraint=eastwest;" vertex="1" parent="1">
          <mxGeometry x="-70" y="190" width="800" height="10" as="geometry" />
        </mxCell>
        <mxCell id="wx3tCpPTfAVVABFYTkkV-43" value="Item" style="shape=partialRectangle;fillColor=none;align=left;verticalAlign=middle;strokeColor=none;spacingLeft=34;rotatable=0;points=[[0,0.5],[1,0.5]];portConstraint=eastwest;dropTarget=0;" vertex="1" parent="1">
          <mxGeometry x="230" y="194" width="90" height="270" as="geometry" />
        </mxCell>
        <mxCell id="wx3tCpPTfAVVABFYTkkV-44" value="" style="shape=partialRectangle;top=0;left=0;bottom=0;fillColor=none;stokeWidth=1;dashed=1;align=left;verticalAlign=middle;spacingLeft=4;spacingRight=4;overflow=hidden;rotatable=0;points=[];portConstraint=eastwest;part=1;" vertex="1" connectable="0" parent="wx3tCpPTfAVVABFYTkkV-43">
          <mxGeometry width="30" height="270" as="geometry" />
        </mxCell>
        <mxCell id="wx3tCpPTfAVVABFYTkkV-46" value="" style="line;strokeWidth=1;rotatable=0;dashed=0;labelPosition=right;align=left;verticalAlign=middle;spacingTop=0;spacingLeft=6;points=[];portConstraint=eastwest;" vertex="1" parent="1">
          <mxGeometry x="430" y="460" width="60" height="10" as="geometry" />
        </mxCell>
        <mxCell id="wx3tCpPTfAVVABFYTkkV-47" value="" style="line;strokeWidth=1;rotatable=0;dashed=0;labelPosition=right;align=left;verticalAlign=middle;spacingTop=0;spacingLeft=6;points=[];portConstraint=eastwest;" vertex="1" parent="1">
          <mxGeometry x="430" y="460" width="60" height="10" as="geometry" />
        </mxCell>
        <mxCell id="wx3tCpPTfAVVABFYTkkV-48" value="" style="line;strokeWidth=1;rotatable=0;dashed=0;labelPosition=right;align=left;verticalAlign=middle;spacingTop=0;spacingLeft=6;points=[];portConstraint=eastwest;" vertex="1" parent="1">
          <mxGeometry x="100" y="290" width="630" height="10" as="geometry" />
        </mxCell>
        <mxCell id="wx3tCpPTfAVVABFYTkkV-49" value="" style="line;strokeWidth=1;rotatable=0;dashed=0;labelPosition=right;align=left;verticalAlign=middle;spacingTop=0;spacingLeft=6;points=[];portConstraint=eastwest;" vertex="1" parent="1">
          <mxGeometry x="100" y="382" width="630" height="10" as="geometry" />
        </mxCell>
      </root>
    </mxGraphModel>
  </diagram>
</mxfile>
